<mxfile host="app.diagrams.net" modified="2024-06-30T14:34:46.330Z" agent="Mozilla/5.0 (Windows NT 10.0; Win64; x64) AppleWebKit/537.36 (KHTML, like Gecko) Chrome/126.0.0.0 Safari/537.36 Edg/126.0.0.0" etag="p-IUBtihiVRQ7-2pqjVO" version="24.5.4" type="github">
  <diagram name="PÃ¡gina-1" id="CHFw5YSZQ6bKpswKDhKj">
    <mxGraphModel dx="2728" dy="1071" grid="1" gridSize="10" guides="1" tooltips="1" connect="1" arrows="1" fold="1" page="1" pageScale="1" pageWidth="827" pageHeight="1169" math="0" shadow="0">
      <root>
        <mxCell id="0" />
        <mxCell id="1" parent="0" />
        <mxCell id="SXZxHrfiubfQfkabu01j-11" value="AWS Cloud" style="points=[[0,0],[0.25,0],[0.5,0],[0.75,0],[1,0],[1,0.25],[1,0.5],[1,0.75],[1,1],[0.75,1],[0.5,1],[0.25,1],[0,1],[0,0.75],[0,0.5],[0,0.25]];outlineConnect=0;gradientColor=none;html=1;whiteSpace=wrap;fontSize=12;fontStyle=0;container=1;pointerEvents=0;collapsible=0;recursiveResize=0;shape=mxgraph.aws4.group;grIcon=mxgraph.aws4.group_aws_cloud_alt;strokeColor=#232F3E;fillColor=none;verticalAlign=top;align=left;spacingLeft=30;fontColor=#232F3E;dashed=0;" vertex="1" parent="1">
          <mxGeometry x="-280" y="100" width="1040" height="660" as="geometry" />
        </mxCell>
        <mxCell id="SXZxHrfiubfQfkabu01j-12" value="VPC" style="points=[[0,0],[0.25,0],[0.5,0],[0.75,0],[1,0],[1,0.25],[1,0.5],[1,0.75],[1,1],[0.75,1],[0.5,1],[0.25,1],[0,1],[0,0.75],[0,0.5],[0,0.25]];outlineConnect=0;gradientColor=none;html=1;whiteSpace=wrap;fontSize=12;fontStyle=0;container=1;pointerEvents=0;collapsible=0;recursiveResize=0;shape=mxgraph.aws4.group;grIcon=mxgraph.aws4.group_vpc2;strokeColor=#8C4FFF;fillColor=none;verticalAlign=top;align=left;spacingLeft=30;fontColor=#AAB7B8;dashed=0;" vertex="1" parent="SXZxHrfiubfQfkabu01j-11">
          <mxGeometry x="143" y="40" width="860" height="590" as="geometry" />
        </mxCell>
        <mxCell id="SXZxHrfiubfQfkabu01j-51" style="edgeStyle=orthogonalEdgeStyle;rounded=0;orthogonalLoop=1;jettySize=auto;html=1;" edge="1" parent="SXZxHrfiubfQfkabu01j-12" source="SXZxHrfiubfQfkabu01j-47" target="SXZxHrfiubfQfkabu01j-31">
          <mxGeometry relative="1" as="geometry">
            <mxPoint x="293" y="480" as="targetPoint" />
            <Array as="points">
              <mxPoint x="293" y="250" />
            </Array>
          </mxGeometry>
        </mxCell>
        <mxCell id="SXZxHrfiubfQfkabu01j-24" value="" style="fillColor=none;strokeColor=#5A6C86;dashed=1;verticalAlign=top;fontStyle=0;fontColor=#5A6C86;whiteSpace=wrap;html=1;" vertex="1" parent="SXZxHrfiubfQfkabu01j-12">
          <mxGeometry x="80" y="130" width="740" height="417" as="geometry" />
        </mxCell>
        <mxCell id="SXZxHrfiubfQfkabu01j-25" value="" style="sketch=0;points=[[0,0,0],[0.25,0,0],[0.5,0,0],[0.75,0,0],[1,0,0],[0,1,0],[0.25,1,0],[0.5,1,0],[0.75,1,0],[1,1,0],[0,0.25,0],[0,0.5,0],[0,0.75,0],[1,0.25,0],[1,0.5,0],[1,0.75,0]];outlineConnect=0;fontColor=#232F3E;fillColor=#ED7100;strokeColor=#ffffff;dashed=0;verticalLabelPosition=bottom;verticalAlign=top;align=center;html=1;fontSize=12;fontStyle=0;aspect=fixed;shape=mxgraph.aws4.resourceIcon;resIcon=mxgraph.aws4.eks;" vertex="1" parent="SXZxHrfiubfQfkabu01j-12">
          <mxGeometry x="80" y="127" width="30" height="30" as="geometry" />
        </mxCell>
        <mxCell id="SXZxHrfiubfQfkabu01j-30" value="" style="fillColor=none;strokeColor=#5A6C86;dashed=1;verticalAlign=top;fontStyle=0;fontColor=#5A6C86;whiteSpace=wrap;html=1;" vertex="1" parent="SXZxHrfiubfQfkabu01j-12">
          <mxGeometry x="110" y="180" width="680" height="347" as="geometry" />
        </mxCell>
        <mxCell id="SXZxHrfiubfQfkabu01j-28" value="" style="aspect=fixed;sketch=0;html=1;dashed=0;whitespace=wrap;verticalLabelPosition=bottom;verticalAlign=top;fillColor=#2875E2;strokeColor=#ffffff;points=[[0.005,0.63,0],[0.1,0.2,0],[0.9,0.2,0],[0.5,0,0],[0.995,0.63,0],[0.72,0.99,0],[0.5,1,0],[0.28,0.99,0]];shape=mxgraph.kubernetes.icon2;kubernetesLabel=1;prIcon=node" vertex="1" parent="SXZxHrfiubfQfkabu01j-12">
          <mxGeometry x="110" y="180" width="31.25" height="30" as="geometry" />
        </mxCell>
        <mxCell id="SXZxHrfiubfQfkabu01j-39" value="" style="group" vertex="1" connectable="0" parent="SXZxHrfiubfQfkabu01j-12">
          <mxGeometry x="442" y="197" width="120" height="106" as="geometry" />
        </mxCell>
        <mxCell id="SXZxHrfiubfQfkabu01j-31" value="Menuguru Application&lt;div&gt;&lt;br&gt;&lt;/div&gt;&lt;div&gt;2..5 instances&lt;/div&gt;" style="rounded=1;whiteSpace=wrap;html=1;verticalAlign=bottom;" vertex="1" parent="SXZxHrfiubfQfkabu01j-39">
          <mxGeometry width="120" height="106" as="geometry" />
        </mxCell>
        <mxCell id="SXZxHrfiubfQfkabu01j-29" value="" style="aspect=fixed;sketch=0;html=1;dashed=0;whitespace=wrap;verticalLabelPosition=bottom;verticalAlign=top;fillColor=#2875E2;strokeColor=#ffffff;points=[[0.005,0.63,0],[0.1,0.2,0],[0.9,0.2,0],[0.5,0,0],[0.995,0.63,0],[0.72,0.99,0],[0.5,1,0],[0.28,0.99,0]];shape=mxgraph.kubernetes.icon2;kubernetesLabel=1;prIcon=pod" vertex="1" parent="SXZxHrfiubfQfkabu01j-39">
          <mxGeometry x="35" y="6" width="50" height="48" as="geometry" />
        </mxCell>
        <mxCell id="SXZxHrfiubfQfkabu01j-47" value="Public Subnet&lt;div&gt;us-east-1&lt;/div&gt;" style="sketch=0;points=[[0,0,0],[0.25,0,0],[0.5,0,0],[0.75,0,0],[1,0,0],[0,1,0],[0.25,1,0],[0.5,1,0],[0.75,1,0],[1,1,0],[0,0.25,0],[0,0.5,0],[0,0.75,0],[1,0.25,0],[1,0.5,0],[1,0.75,0]];outlineConnect=0;fontColor=#232F3E;fillColor=#8C4FFF;strokeColor=#ffffff;dashed=0;verticalLabelPosition=bottom;verticalAlign=top;align=center;html=1;fontSize=12;fontStyle=0;aspect=fixed;shape=mxgraph.aws4.resourceIcon;resIcon=mxgraph.aws4.networking_and_content_delivery;labelBackgroundColor=default;" vertex="1" parent="SXZxHrfiubfQfkabu01j-12">
          <mxGeometry x="274" y="20" width="38" height="38" as="geometry" />
        </mxCell>
        <mxCell id="SXZxHrfiubfQfkabu01j-54" value="" style="group" vertex="1" connectable="0" parent="SXZxHrfiubfQfkabu01j-12">
          <mxGeometry x="233" y="360" width="120" height="106" as="geometry" />
        </mxCell>
        <mxCell id="SXZxHrfiubfQfkabu01j-55" value="&lt;div&gt;&amp;nbsp;&lt;/div&gt;&lt;div&gt;&lt;br&gt;&lt;/div&gt;&lt;div&gt;EFK&lt;/div&gt;&lt;div&gt;&lt;br&gt;&lt;/div&gt;&lt;div&gt;1 intance&lt;/div&gt;" style="rounded=1;whiteSpace=wrap;html=1;verticalAlign=bottom;" vertex="1" parent="SXZxHrfiubfQfkabu01j-54">
          <mxGeometry width="120" height="106" as="geometry" />
        </mxCell>
        <mxCell id="SXZxHrfiubfQfkabu01j-56" value="" style="aspect=fixed;sketch=0;html=1;dashed=0;whitespace=wrap;verticalLabelPosition=bottom;verticalAlign=top;fillColor=#2875E2;strokeColor=#ffffff;points=[[0.005,0.63,0],[0.1,0.2,0],[0.9,0.2,0],[0.5,0,0],[0.995,0.63,0],[0.72,0.99,0],[0.5,1,0],[0.28,0.99,0]];shape=mxgraph.kubernetes.icon2;kubernetesLabel=1;prIcon=pod" vertex="1" parent="SXZxHrfiubfQfkabu01j-54">
          <mxGeometry x="35" y="6" width="50" height="48" as="geometry" />
        </mxCell>
        <mxCell id="SXZxHrfiubfQfkabu01j-57" value="MySQL&amp;nbsp;&lt;span style=&quot;&quot;&gt;Multi A-Z&lt;/span&gt;&lt;div&gt;&lt;span style=&quot;&quot;&gt;(1 Master / 2 slaves)&lt;/span&gt;&lt;/div&gt;" style="sketch=0;points=[[0,0,0],[0.25,0,0],[0.5,0,0],[0.75,0,0],[1,0,0],[0,1,0],[0.25,1,0],[0.5,1,0],[0.75,1,0],[1,1,0],[0,0.25,0],[0,0.5,0],[0,0.75,0],[1,0.25,0],[1,0.5,0],[1,0.75,0]];outlineConnect=0;fontColor=#232F3E;fillColor=#C925D1;strokeColor=#ffffff;dashed=0;verticalLabelPosition=bottom;verticalAlign=top;align=center;html=1;fontSize=12;fontStyle=0;aspect=fixed;shape=mxgraph.aws4.resourceIcon;resIcon=mxgraph.aws4.rds;labelBackgroundColor=default;" vertex="1" parent="SXZxHrfiubfQfkabu01j-12">
          <mxGeometry x="673" y="20" width="40" height="40" as="geometry" />
        </mxCell>
        <mxCell id="SXZxHrfiubfQfkabu01j-59" style="edgeStyle=orthogonalEdgeStyle;rounded=0;orthogonalLoop=1;jettySize=auto;html=1;" edge="1" parent="SXZxHrfiubfQfkabu01j-12" source="SXZxHrfiubfQfkabu01j-31" target="SXZxHrfiubfQfkabu01j-58">
          <mxGeometry relative="1" as="geometry" />
        </mxCell>
        <mxCell id="SXZxHrfiubfQfkabu01j-60" style="edgeStyle=orthogonalEdgeStyle;rounded=0;orthogonalLoop=1;jettySize=auto;html=1;" edge="1" parent="SXZxHrfiubfQfkabu01j-12" source="SXZxHrfiubfQfkabu01j-58" target="SXZxHrfiubfQfkabu01j-57">
          <mxGeometry relative="1" as="geometry" />
        </mxCell>
        <mxCell id="SXZxHrfiubfQfkabu01j-58" value="Private Subnet&lt;div&gt;us-east-1&lt;/div&gt;" style="sketch=0;points=[[0,0,0],[0.25,0,0],[0.5,0,0],[0.75,0,0],[1,0,0],[0,1,0],[0.25,1,0],[0.5,1,0],[0.75,1,0],[1,1,0],[0,0.25,0],[0,0.5,0],[0,0.75,0],[1,0.25,0],[1,0.5,0],[1,0.75,0]];outlineConnect=0;fontColor=#232F3E;fillColor=#8C4FFF;strokeColor=#ffffff;dashed=0;verticalLabelPosition=bottom;verticalAlign=top;align=center;html=1;fontSize=12;fontStyle=0;aspect=fixed;shape=mxgraph.aws4.resourceIcon;resIcon=mxgraph.aws4.networking_and_content_delivery;labelBackgroundColor=default;" vertex="1" parent="SXZxHrfiubfQfkabu01j-12">
          <mxGeometry x="483" y="22" width="38" height="38" as="geometry" />
        </mxCell>
        <mxCell id="SXZxHrfiubfQfkabu01j-61" style="edgeStyle=orthogonalEdgeStyle;rounded=0;orthogonalLoop=1;jettySize=auto;html=1;" edge="1" parent="SXZxHrfiubfQfkabu01j-11" source="SXZxHrfiubfQfkabu01j-46" target="SXZxHrfiubfQfkabu01j-47">
          <mxGeometry relative="1" as="geometry" />
        </mxCell>
        <mxCell id="SXZxHrfiubfQfkabu01j-46" value="API Gateway" style="sketch=0;points=[[0,0,0],[0.25,0,0],[0.5,0,0],[0.75,0,0],[1,0,0],[0,1,0],[0.25,1,0],[0.5,1,0],[0.75,1,0],[1,1,0],[0,0.25,0],[0,0.5,0],[0,0.75,0],[1,0.25,0],[1,0.5,0],[1,0.75,0]];outlineConnect=0;fontColor=#232F3E;fillColor=#8C4FFF;strokeColor=#ffffff;dashed=0;verticalLabelPosition=bottom;verticalAlign=top;align=center;html=1;fontSize=12;fontStyle=0;aspect=fixed;shape=mxgraph.aws4.resourceIcon;resIcon=mxgraph.aws4.api_gateway;labelBackgroundColor=default;" vertex="1" parent="SXZxHrfiubfQfkabu01j-11">
          <mxGeometry x="41" y="60" width="38" height="38" as="geometry" />
        </mxCell>
        <mxCell id="SXZxHrfiubfQfkabu01j-63" style="edgeStyle=orthogonalEdgeStyle;rounded=0;orthogonalLoop=1;jettySize=auto;html=1;" edge="1" parent="1" source="SXZxHrfiubfQfkabu01j-62" target="SXZxHrfiubfQfkabu01j-46">
          <mxGeometry relative="1" as="geometry" />
        </mxCell>
        <mxCell id="SXZxHrfiubfQfkabu01j-62" value="Client" style="sketch=0;outlineConnect=0;fontColor=#232F3E;gradientColor=none;fillColor=#232F3D;strokeColor=none;dashed=0;verticalLabelPosition=bottom;verticalAlign=top;align=center;html=1;fontSize=12;fontStyle=0;aspect=fixed;pointerEvents=1;shape=mxgraph.aws4.client;labelBackgroundColor=default;" vertex="1" parent="1">
          <mxGeometry x="-450" y="154" width="51.32" height="50" as="geometry" />
        </mxCell>
      </root>
    </mxGraphModel>
  </diagram>
</mxfile>
